{"title":"Taken 2 2012 720p WEBrip XVID AC3 BHRG","uid":7942900,"size":2386940437,"categoryP":"video","categoryS":"hd___movies","magnet":"?xt=urn:btih:b1fcde70922fd88b6815b5427e521c3c9ca77d5c&amp;dn=Taken+2+2012+720p+WEBrip+XVID+AC3+BHRG&amp;tr=udp%3A%2F%2Ftracker.openbittorrent.com%3A80&amp;tr=udp%3A%2F%2Fopen.demonii.com%3A1337&amp;tr=udp%3A%2F%2Ftracker.coppersurfer.tk%3A6969&amp;tr=udp%3A%2F%2Fexodus.desync.com%3A6969","seeders":0,"leechers":1,"uploader":"juggs99","files":4,"time":1356040857,"description":" &lt;a href=&quot;http://www.shotpix.com/images/38268648993687325229.jpeg&quot; rel=&quot;nofollow&quot; target=&quot;_NEW&quot;&gt;http://www.shotpix.com/images/38268648993687325229.jpeg&lt;/a&gt;\n\n\nFormat : AVI\nFormat/Info : Audio Video Interleave\nFormat profile : OpenDML\nFile size : 2.20 GiB\nDuration : 1h 32mn\nOverall bit rate : 3 392 Kbps\nWriting library : VirtualDub build 30091/release\n\nVideo\nID : 0\nFormat : MPEG-4 Visual\nFormat profile : Advanced Simple@L5\nFormat settings, BVOP : 1\nFormat settings, QPel : No\nFormat settings, GMC : No warppoints\nFormat settings, Matrix : Default (H.263)\nMuxing mode : Packed bitstream\nCodec ID : XVID\nCodec ID/Hint : XviD\nDuration : 1h 32mn\nBit rate : 2 998 Kbps\nWidth : 1 280 pixels\nHeight : 544 pixels\nDisplay aspect ratio : 2.35:1\nFrame rate : 23.976 fps\nColor space : YUV\nChroma subsampling : 4:2:0\nBit depth : 8 bits\nScan type : Progressive\nCompression mode : Lossy\nBits/(Pixel*Frame) : 0.180\nStream size : 1.94 GiB (88%)\nWriting library : XviD 64\n\nAudio\nID : 1\nFormat : AC-3\nFormat/Info : Audio Coding 3\nMode extension : CM (complete main)\nFormat settings, Endianness : Big\nCodec ID : 2000\nDuration : 1h 32mn\nBit rate mode : Constant\nBit rate : 384 Kbps\nChannel(s) : 6 channels\nChannel positions : Front: L C R, Side: L R, LFE\nSampling rate : 48.0 KHz\nBit depth : 16 bits\nCompression mode : Lossy\nStream size : 253 MiB (11%)\n\n &lt;a href=&quot;\nhttp://www.shotpix.com/images/74209304763986601085.png&quot; rel=&quot;nofollow&quot; target=&quot;_NEW&quot;&gt;\nhttp://www.shotpix.com/images/74209304763986601085.png&lt;/a&gt; &lt;a href=&quot;\nhttp://www.shotpix.com/images/70393811941803869040.png&quot; rel=&quot;nofollow&quot; target=&quot;_NEW&quot;&gt;\nhttp://www.shotpix.com/images/70393811941803869040.png&lt;/a&gt; &lt;a href=&quot;\nhttp://www.shotpix.com/images/74996494899594882658.png&quot; rel=&quot;nofollow&quot; target=&quot;_NEW&quot;&gt;\nhttp://www.shotpix.com/images/74996494899594882658.png&lt;/a&gt;","torrent":{"xt":"urn:btih:b1fcde70922fd88b6815b5427e521c3c9ca77d5c","amp;dn":"Taken+2+2012+720p+WEBrip+XVID+AC3+BHRG","amp;tr":["udp%3A%2F%2Ftracker.openbittorrent.com%3A80","udp%3A%2F%2Fopen.demonii.com%3A1337","udp%3A%2F%2Ftracker.coppersurfer.tk%3A6969","udp%3A%2F%2Fexodus.desync.com%3A6969"],"infoHash":"b1fcde70922fd88b6815b5427e521c3c9ca77d5c","infoHashBuffer":{"type":"Buffer","data":[177,252,222,112,146,47,216,139,104,21,181,66,126,82,28,60,156,167,125,92]},"announce":[],"urlList":[]}}